# xmcd
#
# Track frame offsets:
#	150
#	15185
#	31627
#	51696
#	67310
#	80597
#	96009
#	110294
#	122990
#	134874
#	146838
#	164014
#	178900
#	197794
#	213056
#	234251
#	250754
#	264462
#
# Disc length: 3734
#
# Revision: 1
# Processed by: cddbd v1.5.2PL0 Copyright (c) Steve Scherf et al.
# Submitted via: kJams Lite (development) 1.0patch50.7
#
DISCID=0b0e9412
DTITLE=irish traditional - SFEK−005
DYEAR=2007
DGENRE=karaoke
TTITLE0=Irish Traditional - A Mother's Love's A Blessing
TTITLE1=Irish Traditional - Bantry Bay
TTITLE2=Irish Traditional - Carrickfergus
TTITLE3=irish traditional - Peggy Gordon
TTITLE4=Irish Traditional - Come Back To Erin
TTITLE5=Irish Traditional - Cottage In Old Donegal
TTITLE6=Irish Traditional - Gentle Mother
TTITLE7=Irish Traditional - Ireland My Home
TTITLE8=Irish Traditional - Irish Lullaby
TTITLE9=Irish Traditional - How Can You Buy Killarney
TTITLE10=Irish Traditional - I Am A Rover
TTITLE11=Irish Traditional - Mother Macree
TTITLE12=Irish Traditional - Old Skibbereen
TTITLE13=Irish Traditional - Rose Of Killarney
TTITLE14=Irish Traditional - She Moved Through The Fair
TTITLE15=Irish Traditional - The Boys Of County Armagh
TTITLE16=Irish Traditional - Star Of The County Down
TTITLE17=Irish Traditional - Suil A Ruin
EXTD=
EXTT0=
EXTT1=
EXTT2=
EXTT3=
EXTT4=
EXTT5=
EXTT6=
EXTT7=
EXTT8=
EXTT9=
EXTT10=
EXTT11=
EXTT12=
EXTT13=
EXTT14=
EXTT15=
EXTT16=
EXTT17=
PLAYORDER=
